<?xml version="1.0" standalone="no"?>
<!DOCTYPE svg PUBLIC "-//W3C//DTD SVG 20010904//EN"
 "http://www.w3.org/TR/2001/REC-SVG-20010904/DTD/svg10.dtd">
<svg version="1.0" xmlns="http://www.w3.org/2000/svg"
 width="1150.000000pt" height="1280.000000pt" viewBox="0 0 1150.000000 1280.000000"
 preserveAspectRatio="xMidYMid meet">
<metadata>
Created by potrace 1.15, written by Peter Selinger 2001-2017
</metadata>
<g transform="translate(0.000000,1280.000000) scale(0.100000,-0.100000)"
fill="#000000" stroke="none">
<path d="M10614 12768 c-27 -18 -69 -59 -94 -92 -25 -32 -78 -95 -119 -140
-40 -44 -123 -155 -183 -246 -132 -198 -170 -245 -210 -266 -17 -9 -76 -19
-137 -24 -321 -27 -485 -92 -694 -277 -159 -140 -349 -396 -472 -634 -53 -103
-64 -118 -94 -129 -56 -20 -219 -193 -418 -440 -161 -201 -227 -273 -317 -347
-30 -24 -34 -63 -11 -103 8 -14 14 -28 15 -31 0 -3 -39 0 -87 7 -99 15 -287
19 -279 5 3 -4 24 -11 47 -15 49 -8 127 -46 153 -75 11 -12 17 -21 15 -21
-200 -11 -302 -22 -367 -41 -72 -22 -74 -24 -49 -34 24 -10 15 -12 -74 -24
-99 -12 -266 -54 -283 -71 -4 -4 18 -11 50 -15 87 -9 166 -26 192 -39 21 -11
8 -14 -95 -24 -115 -11 -258 -44 -278 -63 -5 -5 14 -9 51 -9 33 0 83 -7 110
-15 57 -17 114 -59 99 -73 -5 -5 -50 -17 -100 -27 -96 -18 -167 -49 -202 -87
l-22 -23 48 3 c34 3 64 -3 100 -18 55 -24 66 -40 27 -40 -46 0 -298 -69 -362
-99 -77 -36 -86 -61 -19 -53 52 5 174 -17 153 -28 -7 -4 -44 -11 -83 -15 -119
-12 -227 -35 -287 -62 -32 -14 -58 -30 -58 -34 0 -5 33 -9 74 -9 41 0 87 -5
103 -12 l28 -12 -25 -3 c-252 -37 -380 -70 -610 -158 -121 -46 -156 -55 -210
-55 -77 0 -165 -14 -237 -36 -58 -18 -64 -26 -32 -40 18 -8 8 -13 -57 -29 -73
-18 -76 -20 -39 -23 58 -4 144 -22 150 -31 2 -5 -15 -6 -39 -4 -50 6 -135 -16
-186 -49 l-35 -22 54 -7 c85 -11 83 -26 -6 -32 -43 -2 -103 -11 -133 -18 l-55
-13 75 -12 c41 -7 77 -13 80 -13 36 -5 -183 -76 -455 -146 -492 -128 -1043
-207 -1815 -260 -193 -13 -224 -13 -298 1 -74 14 -87 14 -135 0 -76 -23 -88
-32 -55 -45 14 -5 29 -15 34 -22 5 -9 2 -10 -12 -5 -58 23 -254 14 -254 -12 0
-4 15 -16 33 -26 28 -17 29 -20 12 -23 -223 -40 -363 -82 -480 -141 l-70 -35
48 -11 48 -11 -193 -84 c-445 -194 -677 -331 -852 -504 -56 -55 -96 -101 -90
-104 6 -2 30 1 53 6 24 5 41 8 39 6 -2 -1 -46 -31 -98 -66 -88 -58 -300 -256
-300 -280 0 -5 30 3 67 16 l68 26 -55 -48 c-152 -130 -253 -268 -295 -403 -7
-22 -3 -20 37 17 49 44 103 76 119 71 6 -2 -21 -45 -60 -95 -70 -90 -131 -200
-131 -236 0 -16 2 -16 30 -2 41 21 44 19 22 -12 -58 -83 -97 -202 -90 -277 l3
-40 31 50 c28 46 77 85 90 72 3 -3 -15 -41 -40 -85 -53 -90 -109 -217 -127
-286 -11 -38 -11 -49 0 -59 10 -11 14 -10 22 4 8 15 139 108 152 108 4 0 -12
-39 -34 -87 -57 -124 -99 -249 -99 -294 0 -21 3 -39 8 -39 4 0 20 16 35 36 28
35 102 94 118 94 10 0 -14 -68 -84 -240 -122 -298 -147 -461 -99 -635 l8 -29
24 31 c22 31 86 70 96 60 3 -3 -8 -29 -24 -58 -37 -67 -48 -100 -71 -222 -11
-62 -14 -94 -7 -90 6 4 28 19 48 36 42 32 45 28 23 -33 -17 -49 -18 -53 -7
-46 5 3 -7 -33 -26 -81 -21 -53 -36 -109 -38 -147 l-5 -61 23 29 c13 16 30 38
40 50 12 16 11 5 -8 -49 -14 -43 -24 -93 -24 -130 l0 -60 21 33 c12 18 23 32
24 30 2 -2 -6 -37 -17 -78 -21 -80 -29 -232 -13 -240 5 -3 27 27 48 65 56 104
108 147 72 61 -39 -93 -125 -477 -145 -650 -21 -169 9 -191 88 -66 52 82 86
105 77 53 -17 -103 -35 -307 -35 -406 0 -114 22 -257 40 -257 4 0 9 42 12 93
2 63 9 100 20 115 16 23 16 23 31 -25 29 -87 37 -130 67 -330 45 -299 79 -409
157 -515 34 -48 125 -128 144 -128 4 0 13 18 19 40 11 42 63 110 84 110 7 0
12 -22 13 -58 5 -132 49 -302 78 -302 14 0 23 27 42 120 9 44 9 44 22 21 13
-24 17 -117 6 -152 -4 -10 -2 -19 2 -19 12 0 59 100 77 160 l13 45 11 -40 c7
-22 12 -76 12 -120 l0 -79 40 39 c22 21 46 57 53 79 l14 41 31 -44 c40 -55 61
-123 69 -223 3 -43 9 -78 13 -78 20 0 84 204 93 295 l3 30 14 -30 c8 -17 14
-59 14 -97 0 -38 3 -68 7 -68 31 0 108 132 109 188 1 61 78 -152 120 -333 12
-49 24 -132 27 -183 6 -86 8 -96 35 -122 16 -16 126 -88 246 -160 119 -72 258
-161 308 -199 119 -88 161 -107 323 -144 164 -37 320 -43 385 -14 32 14 45 15
80 6 22 -7 80 -12 127 -13 77 -1 89 2 127 26 50 34 69 35 99 7 l22 -22 12 29
c17 46 3 108 -47 205 -61 118 -125 188 -206 225 -86 39 -240 46 -337 15 l-64
-20 -61 49 c-76 60 -190 177 -242 250 -125 171 -204 377 -204 530 0 102 68
318 156 495 155 311 379 557 601 660 39 18 93 48 119 66 117 80 271 254 414
468 59 88 64 93 77 75 10 -13 13 -35 10 -71 -3 -29 -2 -53 2 -53 14 0 64 122
69 167 4 40 6 42 22 28 9 -8 27 -38 40 -65 13 -28 27 -50 31 -50 4 0 17 19 28
43 25 51 27 110 6 187 -8 30 -13 56 -11 57 9 9 57 -63 73 -107 10 -28 21 -50
24 -50 11 0 36 72 43 125 4 28 12 65 18 84 l11 34 13 -24 c12 -23 14 -22 47
51 64 138 106 379 114 655 6 205 -4 305 -38 372 -10 20 -19 40 -19 44 0 10 76
39 101 39 35 0 84 -60 114 -140 16 -41 32 -79 36 -84 4 -4 11 14 15 40 13 88
18 94 42 47 12 -22 38 -58 58 -79 34 -36 37 -38 45 -19 4 11 8 35 8 53 1 39
15 41 30 5 6 -16 26 -46 45 -67 l33 -40 -5 80 c-2 45 1 98 8 123 l12 45 38
-103 c44 -116 80 -186 95 -184 6 1 17 35 25 75 17 82 25 98 45 98 17 0 73
-116 110 -228 15 -45 29 -82 31 -82 11 0 64 128 64 155 l1 30 19 -23 c24 -29
40 -84 42 -146 2 -28 7 -46 14 -46 21 0 73 50 101 97 l26 45 38 -73 c22 -41
52 -87 68 -103 l29 -29 -5 59 c-3 33 0 86 7 119 l12 60 25 -55 c23 -53 49 -90
63 -90 4 0 10 19 14 42 l7 41 16 -23 c9 -13 24 -51 33 -83 l16 -59 31 36 c18
19 42 63 55 98 l23 63 6 -98 c3 -53 10 -102 16 -108 17 -17 43 42 57 125 l12
71 27 -45 c32 -56 57 -124 57 -157 0 -22 2 -24 16 -12 22 18 59 95 79 162 9
31 18 57 20 57 2 0 13 -30 25 -66 16 -48 21 -79 16 -110 -5 -42 -5 -44 14 -34
31 17 78 86 123 180 l40 85 12 -40 c7 -22 19 -79 26 -128 7 -50 18 -87 24 -87
27 0 100 115 134 210 l12 35 23 -60 c13 -34 29 -60 37 -60 8 0 27 32 44 77
l31 77 27 -35 c28 -34 47 -37 47 -7 0 17 40 83 51 83 3 0 9 -24 13 -52 8 -74
25 -130 38 -126 6 2 21 31 33 63 51 134 44 131 70 30 12 -49 30 -108 40 -130
17 -40 17 -40 27 -15 25 64 69 150 76 150 4 0 13 -9 20 -20 20 -32 35 -23 60
33 12 28 32 63 42 77 l20 25 -10 -28 c-5 -16 -10 -40 -10 -54 0 -15 -7 -34
-15 -43 -15 -16 -55 -156 -55 -192 0 -21 4 -22 32 -7 33 18 33 2 -1 -31 -26
-26 -54 -87 -45 -98 1 -2 14 4 29 14 24 16 28 16 42 1 15 -15 13 -20 -25 -61
-23 -25 -42 -48 -42 -52 0 -3 14 -3 30 1 19 4 36 2 45 -5 21 -17 19 -30 -4
-30 -17 0 -49 -27 -40 -33 2 -1 16 -9 31 -16 16 -8 35 -26 44 -39 16 -25 16
-26 -12 -52 l-30 -26 31 -14 c36 -18 43 -44 19 -71 -9 -10 -15 -20 -13 -22 2
-1 13 -7 24 -13 15 -8 24 -33 38 -105 10 -52 31 -166 48 -254 29 -150 92 -409
174 -710 49 -181 97 -404 140 -645 44 -250 61 -306 125 -401 68 -101 79 -113
136 -142 112 -57 249 -73 363 -43 35 10 61 12 77 6 77 -30 285 -18 390 21 31
12 70 34 87 49 25 21 39 26 65 23 17 -3 32 -2 32 1 0 4 -41 68 -92 144 -99
147 -179 236 -243 267 -58 29 -165 27 -223 -3 l-42 -23 -9 23 c-24 63 -92 324
-106 402 -8 49 -15 124 -15 168 0 101 24 325 54 503 l24 140 1 -114 1 -115 20
22 c34 36 57 25 36 -17 -16 -31 -39 -132 -31 -139 3 -3 15 4 28 15 39 36 104
61 79 30 -14 -16 -42 -115 -42 -146 l0 -24 23 20 c23 21 62 39 55 26 -26 -51
-38 -91 -44 -147 -4 -36 -4 -66 0 -66 3 0 24 18 46 40 22 22 49 40 60 40 19 0
19 -2 -5 -56 -32 -71 -31 -80 1 -55 15 12 37 21 49 21 21 0 23 -4 18 -42 -2
-24 -6 -51 -8 -60 -4 -21 -1 -22 27 -7 15 8 31 8 58 0 32 -9 39 -18 59 -68 72
-180 249 -484 422 -728 55 -77 113 -161 129 -187 55 -89 157 -126 358 -129
116 -2 133 0 192 23 36 15 89 31 118 37 67 14 111 32 166 70 l43 30 23 -24
c36 -39 43 -31 37 38 -12 131 -82 246 -204 339 -101 76 -156 93 -304 93 l-126
0 -52 121 c-134 316 -219 578 -246 758 -25 174 -36 531 -25 850 14 414 44 825
77 1056 13 94 15 168 10 397 -6 268 -5 283 12 283 10 0 67 -9 126 -20 60 -10
111 -18 113 -16 1 2 -20 24 -48 48 l-51 45 38 6 c37 6 227 -7 288 -19 l30 -7
-33 35 c-44 46 -130 88 -209 101 -35 6 -63 14 -63 18 0 11 143 71 183 77 20 2
37 8 37 12 0 11 -81 50 -106 51 -10 0 21 11 70 24 169 44 218 75 144 89 -18 3
-46 15 -62 25 l-29 19 59 7 c75 9 180 32 205 45 30 17 24 37 -10 32 -38 -5
-93 13 -116 38 -18 20 -17 20 16 20 47 0 103 17 130 39 l23 18 -23 12 c-23 13
-61 67 -61 89 0 7 13 12 33 12 34 0 105 15 114 23 2 3 -14 22 -37 43 -42 38
-105 122 -98 129 2 2 26 -2 53 -10 67 -21 69 -19 47 18 -57 94 -86 213 -62
257 12 23 61 40 117 40 37 0 44 3 41 17 -2 10 -17 26 -34 38 -74 48 -73 46
-14 42 30 -3 63 -8 73 -12 16 -6 13 3 -13 55 -17 34 -29 64 -27 67 3 2 19 -3
36 -11 26 -14 61 -21 61 -13 0 1 -13 38 -30 80 -16 43 -30 81 -30 85 0 3 16
-9 35 -28 l35 -34 0 50 c0 29 -11 73 -25 108 l-24 59 37 -35 c58 -55 107 -88
130 -88 27 0 27 1 3 48 -20 39 -55 171 -48 178 2 3 21 -25 42 -61 39 -65 71
-103 80 -93 3 3 0 39 -6 79 -9 57 -8 130 1 312 7 130 16 237 20 237 4 0 12
-11 18 -25 19 -41 29 -28 24 33 -6 90 1 105 22 45 10 -29 21 -53 24 -53 4 0 7
33 7 73 0 70 2 75 53 154 67 106 117 206 134 268 l12 50 7 -35 6 -35 16 37
c10 21 21 68 26 105 5 37 9 58 10 46 2 -43 18 -23 40 50 37 124 53 237 56 392
2 83 4 154 4 158 1 5 10 5 21 2 23 -7 24 -6 10 31 -10 25 -9 26 12 20 13 -4
37 -9 53 -13 29 -6 29 -5 13 13 -13 16 -58 130 -58 149 0 3 17 -6 37 -20 21
-14 43 -25 49 -25 6 0 -3 27 -19 60 -32 64 -31 78 1 61 23 -12 65 -14 99 -5
22 6 21 7 -12 58 -32 49 -62 132 -51 143 3 3 26 -2 52 -11 26 -9 49 -16 52
-16 2 0 -12 19 -32 42 -36 42 -74 123 -62 135 3 3 32 -1 63 -10 32 -8 59 -15
60 -13 1 1 -11 19 -28 39 -40 49 -59 121 -59 228 0 48 -9 138 -21 200 -30 164
-37 447 -15 597 38 254 88 395 281 792 175 359 206 434 212 520 5 74 -17 159
-61 235 -29 49 -34 51 -101 33 -39 -11 -49 -10 -74 5 -39 23 -65 23 -56 0 4
-10 9 -34 12 -54 5 -32 1 -39 -26 -58 -28 -20 -153 -81 -166 -81 -10 0 -5 76
15 235 11 88 20 187 20 220 0 138 -51 259 -173 410 -129 159 -182 184 -273
123z"/>
</g>
</svg>
