<svg xmlns:dc="http://purl.org/dc/elements/1.1/" xmlns:cc="http://creativecommons.org/ns#" xmlns:rdf="http://www.w3.org/1999/02/22-rdf-syntax-ns#" xmlns:svg="http://www.w3.org/2000/svg" xmlns="http://www.w3.org/2000/svg" viewBox="0 0 256 256" fill="none"><metadata><rdf:RDF><cc:Work><dc:format>image/svg+xml</dc:format><dc:type rdf:resource="http://purl.org/dc/dcmitype/StillImage"/><dc:title>Croodles - Doodle your face</dc:title><dc:creator><cc:Agent><dc:title>vijay verma</dc:title></cc:Agent></dc:creator><dc:source>https://www.figma.com/community/file/966199982810283152</dc:source><cc:license rdf:resource="https://creativecommons.org/licenses/by/4.0/"/></cc:Work><cc:License rdf:about="https://creativecommons.org/licenses/by/4.0/"><cc:permits rdf:resource="https://creativecommons.org/ns#Reproduction"/><cc:permits rdf:resource="https://creativecommons.org/ns#Distribution"/><cc:permits rdf:resource="https://creativecommons.org/ns#DerivativeWorks"/><cc:requires rdf:resource="https://creativecommons.org/ns#Notice"/><cc:requires rdf:resource="https://creativecommons.org/ns#Attribution"/></cc:License></rdf:RDF></metadata><mask id="avatarsRadiusMask"><rect width="256" height="256" rx="0" ry="0" x="0" y="0" fill="#fff"/></mask><g mask="url(#avatarsRadiusMask)"><g><path d="M73.32 106.476c2.008-5.448 3.916-9.729 5.362-12.217a1.449 1.449 0 0 1 .168-1.08c2.917-4.873 8.868-9.316 16.316-12.838 7.494-3.544 16.689-6.246 26.333-7.525 19.213-2.549 40.653.507 53.883 14.409.259.272.392.617.402.964.988 1.122 2.257 3.232 3.626 5.974 1.36 2.724 2.877 6.192 4.382 10.204a11.309 11.309 0 0 1 4.653-.426c2.002.249 4.147 1.15 5.361 3.246 2.037 3.518 2.877 9.932 1.561 15.85-.418 1.882-1.319 3.241-2.526 4.113a6.066 6.066 0 0 1-2.371 1.02c.526 2.781.973 5.625 1.315 8.504 2.779 23.356-1.253 49.592-25.988 62.6-23.569 12.395-46.976 16.081-65.598 12.323-18.654-3.764-32.576-15.041-36.705-32.488-3.197-13.511-1.26-31.045 2.242-46.718-1.527-.286-2.942-1.407-3.935-2.998-1.307-2.094-2.05-5.187-1.725-9.229.499-6.198 2.157-10.521 4.805-12.795 1.358-1.166 2.943-1.76 4.637-1.773 1.274-.011 2.554.306 3.802.88Z" fill="rgba(255, 255, 255, 0)"/><g stroke="#000" stroke-width="3" stroke-linecap="round" stroke-linejoin="round"><path d="M79.071 93.7c-6.098 10.055-22.299 57.65-15.55 86.368 8.092 34.429 54.531 44.899 102.099 19.71C214.342 173.979 182.205 95.542 175.28 88"/><path d="M184.31 105.447c2.588-1.153 7.412-1.298 9.256 1.909 1.844 3.207 2.71 9.385 1.427 15.193-.717 3.246-2.955 4.228-4.922 4.228M72.476 107.787c-5.846-3.492-11.406-.213-12.403 12.257-.627 7.84 2.922 11.331 5.416 10.975"/></g><g transform="translate(116 120)"><path d="M13 43.803c3.666 0 8.537-1.535 9.228-5.918.602-3.812-5.617-3.21-7.322-7.523s-.893-17.67 0-23.362" stroke="#000" stroke-width="3" stroke-linecap="round" stroke-linejoin="round"/></g><g transform="translate(57 132)"/><g transform="translate(86 184)"><g stroke="#000" stroke-width="3" stroke-linecap="round" stroke-linejoin="round"><path d="M54.254 13.735c4.915-9.399-1.372-9.996-6.517-7.424-2.417 1.208-14.6 4.267-23.49 2.403-6.452-2.437-9.806-6.733-10.243 4.184-.438 10.917 36.17 8.642 40.25.837Z"/><path d="M15.169 11.877c7.97 2.77 26.97 5.86 39.215-3.936M23.902 10.969l-.861 5.645M30.84 12.387l-.51 6.195M37.44 11.66l.872 6.441M45.273 9.8l1.409 7.064"/></g></g><g transform="translate(-2 -17)"><g stroke="rgba(151, 71, 255, 1)" stroke-width="3" stroke-linecap="round" stroke-linejoin="round"><path d="M133.59 74.457c-6.369 8.107-18.529 10.423-26.056 11.58-12.911 1.987-19.434 9.265-24.898 27.215-7.647 25.123-3.26 46.591-5.464 65.429-2.642 22.582 4.113 27.214 5.464 28.372"/><path d="M134.169 69.246c-4.825 6.948-17.834 8.917-33.583 12.16-19.687 4.053-32.678 33.004-30.941 72.956 1.39 31.962.579 48.445 0 52.691"/><path d="M58.897 195.473c5.21-7.527 4.523-22.39 3.474-33.583-3.474-37.058 5.21-64.272 17.37-77.59 15.332-16.79 39.953-8.105 53.849-19.107"/><path d="M131.853 61.719c-8.685-5.79-25.361-2.085-34.162 1.158-11.001 4.053-35.216 20.07-38.794 56.744-4.077 41.786-14.182 71.595 0 84.731"/><path d="M47.895 216.897C52.527 204.158 45 193.736 45 170.575c0-19.823 9.5-65.351 16.465-78.747 7.527-14.475 10.35-21.87 24.066-30.688 16.213-10.422 39.852-15.76 49.116-1.285M137.678 58.845c16.213-15.054 31.464-2.106 41.655 10.401 12.738 15.634 16.539 20.845 20.013 53.849 3.474 33.005 2.038 36.825 2.895 46.901 1.118 13.137 6.074 17.809 14.759 24.757"/><path d="M137.643 66.351c9.844 9.843 15.728 5.027 25.802 9.672 15.331 7.068 20.851 16.775 23.746 31.83 2.896 15.054-2.316 48.616 0 59.617 1.853 8.802 5.053 17.178 16.168 20.21"/><path d="M137.643 62.298c12.666-2.948 15.866-2.432 26.056 1.737 12.739 5.211 29.278 26.056 28.699 56.165-.579 30.109-4.632 54.428 13.317 73.536"/><path d="M137.064 70.404c1.119 4.103 5.287 8.808 16.782 11.682 22.735 5.684 27.55 28.271 28.708 49.116 1.158 20.844-4.406 38.823 3.121 54.457 5.839 12.126 14.147 16.673 20.715 16.673"/><path d="M136.485 75.615c1.737 11.58 13.897 13.318 28.951 22.582 15.055 9.265 14.614 33.268 11.651 58.158-2.526 21.22 3.031 35.872 18.693 35.872"/></g></g><g transform="translate(71 151)"/><g transform="translate(71 89)"><g stroke="#000" stroke-linecap="round" stroke-linejoin="round"><path d="M33.942 27.705c7.098-2.653 13.238 5.211 13.238 10.872 0 6.83-5.28 12.537-10.293 12.537-5.011 0-9.887-5.707-9.887-12.536 0-5.662 4.02-9.794 7.83-11.262M77.413 23.224c6.564-2.653 11.03 5.332 11.03 10.993 0 6.83-3.868 12.537-8.503 12.537s-9.02-4.682-9.02-12.171c0-7.489 3.594-10.16 7.117-11.627" stroke-width="3"/><path d="M40.12 40.512s0 0 0 0M81.992 38.226s0 0 0 0" stroke-width="6"/><path d="M28.229 19.251c2.78-3.127 10.059-7.817 16.938-1.563M66.192 15.104c4.343-4.169 14.437-10.37 20.065-1.824" stroke-width="3"/></g></g></g></g></svg>