<svg xmlns:dc="http://purl.org/dc/elements/1.1/" xmlns:cc="http://creativecommons.org/ns#" xmlns:rdf="http://www.w3.org/1999/02/22-rdf-syntax-ns#" xmlns:svg="http://www.w3.org/2000/svg" xmlns="http://www.w3.org/2000/svg" viewBox="0 0 256 256" fill="none"><metadata><rdf:RDF><cc:Work><dc:format>image/svg+xml</dc:format><dc:type rdf:resource="http://purl.org/dc/dcmitype/StillImage"/><dc:title>Croodles - Doodle your face</dc:title><dc:creator><cc:Agent><dc:title>vijay verma</dc:title></cc:Agent></dc:creator><dc:source>https://www.figma.com/community/file/966199982810283152</dc:source><cc:license rdf:resource="https://creativecommons.org/licenses/by/4.0/"/></cc:Work><cc:License rdf:about="https://creativecommons.org/licenses/by/4.0/"><cc:permits rdf:resource="https://creativecommons.org/ns#Reproduction"/><cc:permits rdf:resource="https://creativecommons.org/ns#Distribution"/><cc:permits rdf:resource="https://creativecommons.org/ns#DerivativeWorks"/><cc:requires rdf:resource="https://creativecommons.org/ns#Notice"/><cc:requires rdf:resource="https://creativecommons.org/ns#Attribution"/></cc:License></rdf:RDF></metadata><mask id="avatarsRadiusMask"><rect width="256" height="256" rx="0" ry="0" x="0" y="0" fill="#fff"/></mask><g mask="url(#avatarsRadiusMask)"><g><g stroke="#000" stroke-width="3" stroke-linecap="round" stroke-linejoin="round"><path d="M78.652 114.924c-6.088 8.802-10.764 34.418-.56 51 11.585 22.533 35.353 28.955 59.629 26.679 24.276-2.276 41.56-22.215 45.705-38.052 4.145-15.838 0-35.343-8.382-45.551"/><path d="M181.22 118.377c2.589-1.154 5.557-1.698 7.401 1.509 1.845 3.207 3.179 7.326 1.653 13.653-.941 3.903-3.279 4.815-5.246 4.815M72.996 124.629c-4.24-1.941-9.13 2.25-7.761 13.366.961 7.806 3.973 9.554 6.467 9.198"/></g><g transform="translate(113 126)"><path d="M21.738 10c4.916 3.966 11.94 22.935 5.97 28.98-5.97 6.046-8.678-4.656-13.806-4.656-5.127 0-9.034 5.918-8.513-1.062.416-5.583 4.035-5.499 4.729-5.763" stroke="#000" stroke-width="3" stroke-linecap="round" stroke-linejoin="round"/></g><g transform="translate(62 112)"><g stroke="#000" stroke-width="3" stroke-linecap="round" stroke-linejoin="round"><path d="M39.863 60.671c1.612 5.163.745 14.793 1.82 18.235M72.727 79.176c-.654-3.281-.74-6.382.005-11.279M74.822 63.115c0-1.8 0-2.7-1.289-4.887M51.35 60.736c0-2.335 0-3.47.61-5.017M47.037 51.543a21.472 21.472 0 0 0 2.603-2.916M65.157 59.478c.302-1.562.002-4.368.002-5.272M36.252 49.177c.828-1.003 3.41-3.166 3.41-4.07M105.986 47.15c1.212.472 4.076 2.243 4.934 1.96M41.481 54.662c.707 1.424 2.647 3.474 3.195 4.192M83.471 55.99c-.455-1.523-2.018-3.873-2.436-4.674M92.156 51.625c-.555-1.779-.63-3.311-1.049-4.112M99.115 43.974c-1.552-1.032-2.576-2.174-3.405-2.533M108.937 69.422c-1.341-3.22-4.024-6.842-5.903-7.915M47.35 64.459c1 3.775-2.274 9.817 0 12.658M27.655 69.422c2.35-1.492 5.349-5.615 6.099-11.486M29.172 53.653c-3.67 4.876-3.73 4.995-6.44 7.981M58.294 80.37c-1.7-2.501-3.744-6.9-1.704-13.38M65.671 77.628c0-1.863.088-3.798-2.882-7.59M92.305 76.831c.764-1.7-2.556-6.197-4.358-7.409M116.684 64.044c.572-1.774-1.475-4.722-5.897-7.812M100.766 74.92c-.55-3.656-1.852-7.608-2.898-9.672M86.917 60.662c.774-.309 2.655-.09 3.988 3.255M98.263 53.635c.553.332 2.988.664 5.196 1.646M81.083 67.18c1.257 3.074.72 6.405 0 11.167"/></g></g><g transform="translate(98 169)"><path d="M43.831 10.44c-8.085 1.427-20.546.901-22.445 2.328-3.364 3.752 16.225 1.365 20.465.865 8.885-1.048 11.798-4.926 1.98-3.193Z" stroke="#000" stroke-width="3" stroke-linecap="round" stroke-linejoin="round"/></g><g transform="translate(-2 4)"><g stroke="rgba(151, 71, 255, 1)" stroke-width="3" stroke-linecap="round" stroke-linejoin="round"><path d="M94.388 104.056c4.93-3.286 18.623-14.789 21.91-16.98M73.157 111.443c4.026-4.347 14.654-18.73 17.338-21.628M81.242 107.891c3.524-4.121 13.812-15.636 16.918-18.076M89.458 103.509c3.834-2.739 9.312-8.217 12.05-10.956M105.343 84.337c4.93-.548 9.312-6.025 11.503-8.764M174.36 104.701c7.121-.645 16.289-6.32 19.082-7.149M67 109.209c2.739-3.287 9.312-8.216 10.407-12.05M102.604 102.413c6.39-5.295 19.719-16.213 21.91-17.528M110.82 100.77c4.748-3.47 15.447-11.394 20.267-15.337M117.393 101.465c5.661-4.748 17.419-14.57 19.172-15.885 2.191-1.644-9.86 10.955-13.146 14.789M129.444 99.674c4.199-3.834 13.146-11.94 15.337-13.694M137.113 97.483c4.382-3.834 13.693-12.05 15.885-14.241M144.233 96.388c3.652-3.47 11.722-10.955 14.79-13.146M148.556 97.678c2.778-2.313 10.744-8.04 20.386-12.44M156.832 98.031c3.469-2.739 12.05-8.873 18.624-11.503M163.953 97.483c1.46-1.46 6.244-5.258 13.694-8.764M70.834 97.483c3.834-2.19 6.025-4.382 7.12-15.885M93.292 77.764c-5.478 3.835-8.216 3.835-12.05 6.026M81.242 94.197c1.675-2.858 6.869-8.831 14.241-9.86M117.941 71.739c-2.008.365-6.902 2.081-10.407 6.025M191.929 83.242c-1.362 1.038-4.393 4.096-5.625 8.023M195.175 92.006c-1.692.265-5.812 1.514-8.764 4.382M182.558 93.558c-1.013.781-3.264 3.076-4.169 6.014M126.598 69.117c-1.705 1.122-5.696 4.803-2.481 12.364M135.469 71.19c-2.008.366-7.121 2.192-7.121 10.408M142.59 81.598c4.747-2.19 14.79-7.778 16.981-12.598M138.208 81.599c4.382-4.383 10.407-7.67 15.885-12.051M132.731 82.165c3.834-3.305 7.12-8.235 10.407-12.617M165.048 73.382l-11.503 4.93M175.456 75.573c-.439 0-9.677 6.573-14.242 9.86M172.35 83.192c3.688-1.181 9.537-2.73 12.237-3.188M171.621 97.483c3.652-3.104 11.065-9.64 11.503-10.955M97.126 75.573c0-.913.986-2.739 4.93-2.739M170.745 71.735c.382.83-1.863 4.386-8.983 8.22M102.604 88.72c2.739 0 11.503-4.383 15.885-6.574M106.438 71.19c-1.095 3.47-4.272 11.285-8.216 14.79"/></g></g><g transform="translate(69 153)"/><g transform="translate(72 106)"><g stroke-width="3" stroke-linecap="round" stroke-linejoin="round"><path d="M35.524 47.974c-.725-.535-5.135-2.321-7.438-6.16-2.303-3.837-2.456-7.675 0-9.364 1.65-1.134 5.147.682 7.438 2.233M36.423 34.017c1.491-1.646 4.12-3.032 6.709-1.567 1.737.983 1.535 7.062 0 9.365-1.233 1.849-5.195 4.94-6.709 5.928M77.688 33.251c-2.2-2.098-7.123-5.373-9.211-1.688-2.61 4.605 5.577 12.974 10.188 14.886M79.776 47.006c2.251-1.689 6.97-5.373 7.83-6.602 1.074-1.535 2.763-7.983 0-10.593-2.764-2.61-8.598 1.075-8.598 5.22" stroke="#F24E1E"/><path d="M26 18.272c.637-1.42 2.937-4.14 7.05-3.671 5.139.587 6.167 1.469 7.342 3.671M72.157 16.213c.588-1.664 3.055-4.817 8.224-4.112 5.17.705 7.05 3.623 7.343 4.993" stroke="#000"/></g></g></g></g></svg>