<svg xmlns:dc="http://purl.org/dc/elements/1.1/" xmlns:cc="http://creativecommons.org/ns#" xmlns:rdf="http://www.w3.org/1999/02/22-rdf-syntax-ns#" xmlns:svg="http://www.w3.org/2000/svg" xmlns="http://www.w3.org/2000/svg" viewBox="0 0 256 256" fill="none"><metadata><rdf:RDF><cc:Work><dc:format>image/svg+xml</dc:format><dc:type rdf:resource="http://purl.org/dc/dcmitype/StillImage"/><dc:title>Croodles - Doodle your face</dc:title><dc:creator><cc:Agent><dc:title>vijay verma</dc:title></cc:Agent></dc:creator><dc:source>https://www.figma.com/community/file/966199982810283152</dc:source><cc:license rdf:resource="https://creativecommons.org/licenses/by/4.0/"/></cc:Work><cc:License rdf:about="https://creativecommons.org/licenses/by/4.0/"><cc:permits rdf:resource="https://creativecommons.org/ns#Reproduction"/><cc:permits rdf:resource="https://creativecommons.org/ns#Distribution"/><cc:permits rdf:resource="https://creativecommons.org/ns#DerivativeWorks"/><cc:requires rdf:resource="https://creativecommons.org/ns#Notice"/><cc:requires rdf:resource="https://creativecommons.org/ns#Attribution"/></cc:License></rdf:RDF></metadata><mask id="avatarsRadiusMask"><rect width="256" height="256" rx="0" ry="0" x="0" y="0" fill="#fff"/></mask><g mask="url(#avatarsRadiusMask)"><g><g stroke="#000" stroke-width="3" stroke-linecap="round" stroke-linejoin="round"><path d="M174.753 105c11.376 21.844 19.288 64.991 13.488 72.291C174.969 194 108.979 199 85.851 184.156c-15.452-9.917-16.433-61.162-8.216-74.892M183.014 121.686c2.899-1.035 8.509-3.798 9.812 1.811 1.303 5.609 1.283 9.099 0 14.907-.699 3.164-2.337 4.11-4.304 4.11"/><path d="M72.163 124.338c-7.606-2.389-12.086 1.888-9.36 11.337 2.583 8.95 7.051 10.834 9.36 10.328"/></g><g transform="translate(112 122)"><path d="M13 43.803c3.666 0 8.537-1.535 9.228-5.918.602-3.812-5.617-3.21-7.322-7.523s-.893-17.67 0-23.362" stroke="#000" stroke-width="3" stroke-linecap="round" stroke-linejoin="round"/></g><g transform="translate(63 112)"/><g transform="translate(98 168)"><path d="M15 14.063s4.249 1.542 7.056 0c2.807-1.542 2.97-5.953 5.098-3.632 2.66 2.901 3.123 4.841 4.574 6.292 1.451 1.45 2.621-4.933 3.83-7.109 1.21-2.176 4.66 6.206 6.594 6.206 1.935 0 1.445-9.494 3.62-7.56 2.177 1.934 1.795 5.394 8.793 3.423" stroke="#000" stroke-width="3" stroke-linecap="round" stroke-linejoin="round"/></g><g transform="translate(-3 -1)"><g stroke-linecap="round" stroke-linejoin="round"><path d="M74.047 67.718c-4.465 16.039 1.41 23.02 1.41 26.305s4.229-19.38 6.477-31.895l-2.958 40.107 9.815-43.166-3.362 47.859 9.679-49.863c-1.076 19.163-3.168 56.433-2.933 52.21.234-4.224 6.552-37.316 9.485-54.426l-2.637 54.426 9.282-52.21-1.371 52.21 8.65-52.21-1.997 54.85 9.386-54.85-1.482 54.85 7.595-52.214v52.214l7.672-48.838v48.838l7.04-46.344c-.782 17.599-.469 50.333 0 46.344.469-3.989 4.497-30.411 6.453-44.197l-.807 44.197 7.26-41.358-.807 41.358 6.673-39.011v35.742l5.967-33.755-1.274 33.755 6.005-28.692.741 26.974 3.072-26.974 1.19 21.25 4.456-17.103v18.134" stroke="rgba(15, 169, 88, 1)" stroke-width="6"/><path d="M178.168 107.645c-17.081 9.856-88.503 9.185-100.075-3.828-17.833-20.051-9.848-38.57 1.792-43.374 11.64-4.804 21.147-14.038 57.66 0 36.514 14.037 53.175 18.658 50.042 38.63-3.134 19.971-23.946 25.661-46.516 21.022-22.57-4.639-52.096 10.117-59.655-3.265-1.02-1.616-2.756-5.715-1.531-9.185" stroke="#000" stroke-width="3"/><path d="M183.931 108.439c4.008-8.792 15.344-28.066 28.631-34.832" stroke="rgba(15, 169, 88, 1)" stroke-width="3"/><path d="M189.988 101.503c4.219-.581 14.048-3.28 19.615-9.428 6.959-7.686 13.956-15.784 12.09-22.62-1.866-6.837-12.284.992-17.24.533-4.955-.459-20.243 25.239-18.415 32.488" stroke="rgba(15, 169, 88, 1)" stroke-width="3"/></g></g><g transform="translate(68 149)"/><g transform="translate(71 103)"><g stroke-width="3" stroke-linecap="round" stroke-linejoin="round"><path d="M35.343 28.88c-2.382.126-7.346 1.43-8.148 5.64-1.003 5.265 2.131 7.396 3.26 7.897 1.127.502 8.272 1.88 9.149-3.008.877-4.888-1.504-8.273-2.883-8.9-1.378-.626-5.64 1.63-6.267 4.012-.627 2.381-2.632 3.384 0 4.888s4.512 3.51 6.267.501c1.755-3.008 1.379-6.643 0-6.893-1.378-.251-4.512.626-4.512 2.506s.376 4.889 1.378 3.886c.803-.802 1.505-2.925 1.755-3.886M84.526 26.953c-2.382.126-7.345 1.43-8.147 5.64-1.003 5.265 2.13 7.396 3.259 7.897 1.128.502 8.272 1.88 9.15-3.008.877-4.888-1.505-8.273-2.883-8.9-1.379-.626-5.64 1.63-6.267 4.012-.627 2.381-2.632 3.384 0 4.888s4.512 3.51 6.267.501c1.754-3.008 1.378-6.643 0-6.893-1.379-.251-4.513.626-4.513 2.506s.376 4.889 1.38 3.886c.801-.802 1.503-2.925 1.754-3.886" stroke="#000"/><path d="M85.38 37.335s0 0 0 0M32.167 34.618c-.39.078-1.209.178-.936.859.273.68 1.327.529 1.58 0 .254-.529-.253-1.717-.253-1.717M81.35 32.691c-.39.078-1.208.178-.936.859.273.68 1.327.529 1.58 0 .254-.529-.253-1.717-.253-1.717" stroke="#fff"/><path d="M27.505 21.785c1.071-1.26 3.781-3.403 6.05-1.89M77.934 17.968c1.071-1.261 4.276-1.32 4.806 0" stroke="#000"/></g></g></g></g></svg>