<svg xmlns:dc="http://purl.org/dc/elements/1.1/" xmlns:cc="http://creativecommons.org/ns#" xmlns:rdf="http://www.w3.org/1999/02/22-rdf-syntax-ns#" xmlns:svg="http://www.w3.org/2000/svg" xmlns="http://www.w3.org/2000/svg" viewBox="0 0 256 256" fill="none"><metadata><rdf:RDF><cc:Work><dc:format>image/svg+xml</dc:format><dc:type rdf:resource="http://purl.org/dc/dcmitype/StillImage"/><dc:title>Croodles - Doodle your face</dc:title><dc:creator><cc:Agent><dc:title>vijay verma</dc:title></cc:Agent></dc:creator><dc:source>https://www.figma.com/community/file/966199982810283152</dc:source><cc:license rdf:resource="https://creativecommons.org/licenses/by/4.0/"/></cc:Work><cc:License rdf:about="https://creativecommons.org/licenses/by/4.0/"><cc:permits rdf:resource="https://creativecommons.org/ns#Reproduction"/><cc:permits rdf:resource="https://creativecommons.org/ns#Distribution"/><cc:permits rdf:resource="https://creativecommons.org/ns#DerivativeWorks"/><cc:requires rdf:resource="https://creativecommons.org/ns#Notice"/><cc:requires rdf:resource="https://creativecommons.org/ns#Attribution"/></cc:License></rdf:RDF></metadata><mask id="avatarsRadiusMask"><rect width="256" height="256" rx="0" ry="0" x="0" y="0" fill="#fff"/></mask><g mask="url(#avatarsRadiusMask)"><g><path d="M73.714 93.458c1.565-7.324 4.064-12.072 7.06-16.638.035-.112.083-.221.145-.327 2.925-4.944 8.893-9.453 16.362-13.028 7.515-3.597 16.736-6.34 26.408-7.637 19.003-2.551 40.181.431 53.487 14.053.237.06.462.182.652.364 7.783 7.47 9.482 18.453 9.188 30.282-.011.432-.024.867-.04 1.303 1.487.307 3.343 1.254 4.775 3.168 1.834 2.45 2.853 6.305 1.862 12.066-.43 2.501-.923 4.09-1.567 5.504-.384.843-.847 1.662-1.343 2.538-.277.491-.564.999-.853 1.54-.707 1.32-1.51 2.806-2.6 3.714-.594.494-1.316.86-2.183.941-.293.027-.585.02-.877-.017-.2 2.146-.371 4.277-.496 6.385-2.187 36.958-4.655 59.814-22.109 79.198-16.882 18.747-43.576 13.371-56.954.058-10.756-10.704-28.535-32.965-32.01-83.46-1.903.338-3.712-.901-5.12-3.008-1.543-2.309-2.958-6.09-4.033-11.786-1.032-5.465-.283-9.335 1.517-11.882a8.246 8.246 0 0 1 6.77-3.524c.203 0 .397.042.573.117.304-3.794.773-7.053 1.386-9.924Z" fill="rgba(255, 255, 255, 0)"/><g stroke="#000" stroke-width="3" stroke-linecap="round" stroke-linejoin="round"><path d="M186.418 102.234c2.238 0 8.261 2.671 6.343 13.766-.842 4.87-1.878 5.906-3.668 9.233-1.514 2.813-2.735 4.84-5.48 3.522M70.397 103.803c-3.813 0-8.954 3.22-6.948 13.797 2.154 11.351 5.56 14.377 7.83 13.699"/><path d="M82.16 74.404C74.975 84.818 70.366 93.918 72.66 131c3.213 51.899 21.394 74.456 32.204 85.161 13.18 13.049 39.297 18.138 55.713 0 17.334-19.153 19.857-41.718 22.084-79.161 1.478-24.861 9.352-52.816-5.5-67"/></g><g transform="translate(117 131)"><path d="M21.738 10c4.916 3.966 11.94 22.935 5.97 28.98-5.97 6.046-8.678-4.656-13.806-4.656-5.127 0-9.034 5.918-8.513-1.062.416-5.583 4.035-5.499 4.729-5.763" stroke="#000" stroke-width="3" stroke-linecap="round" stroke-linejoin="round"/></g><g transform="translate(63 147)"/><g transform="translate(100 194)"><g stroke="#000" stroke-width="3" stroke-linecap="round" stroke-linejoin="round"><path d="M16 6.624c5.289 2.44 13.494 7.955 22.652 7.677C49.779 13.964 53.259 8.17 54.775 5"/><path d="M34.268 6.309c-3.02-1.866-8.596 1.799-9.879 4.203 1.516 5.512 7.297 9.171 13.905 9.171 7.27 0 11.264-6.268 11.933-8.482l-.017-.034c-.624-1.177-1.73-3.266-4.668-4.858-3.708-2.009-6.175 6.067-6.865 6.067-.689 0-.579-3.7-4.41-6.067Z"/></g></g><g transform="translate(0 -34)"><g stroke="rgba(0, 0, 0, 1)" stroke-width="3" stroke-linecap="round" stroke-linejoin="round"><path d="M129.821 67.09c-13.792 3.183-28.115 1.061-43.498 15.914M133.535 65.499c17.505-11.67 46.151 4.244 49.864 24.401M133.004 72.395c9.018 16.975 23.871 32.566 50.395 25.14"/><path d="M133.004 67.62c10.61 13.262 29.706 21.22 47.742 25.463M73.06 105.492c17.231 3.015 52.518-9.018 55.486-29.725M72 102.309c3.183-36.28 48.803-49.541 58.882-36.28"/><path d="M129.291 70.273c-9.293 8.574-24.402 16.975-47.212 22.28M115.499 84.065c-8.488 9.372-15.914 15.384-38.725 19.097M135.656 67.09c6.189-1.237 25.463 0 38.194 16.975"/></g></g><g transform="translate(72 160)"/><g transform="translate(72 89)"><g stroke="#000" stroke-width="3" stroke-linecap="round" stroke-linejoin="round"><path d="M20.84 12.257c1.685-1.252 6.125-2.587 11.267-1.878 4.493.619 6.435 2.244 7.736 4.266M72.868 14.15c2.02-2.903 5.76-3.64 8.115-3.89 2.355-.249 5.035-.25 7.19.328M4 21.169l13.684 6.495M48.232 31.494c5.142-3.297 17.622-3.304 20.454-1.835M96.88 27.34c2.544-1.323 10.581-6.782 13.124-8.613M24.635 49.885c-5.031-3.088-10.578-15.72-5.891-22.67 5.245-7.779 23.806-8.685 28.097 2.34 2.56 6.574 1.531 12.78.894 14.373-1.796 4.488-10.253 13.84-23.1 5.957ZM95.457 26.49c-5.54-7.954-20.979-8.26-25.362.448-1.854 3.686-3.08 14.193 4.383 20.122 3.864 3.07 17.975 8.25 22.817-5.174 2.249-6.237.422-12.151-1.838-15.396Z"/><path d="M34.424 29.788c-.402.247-1.13.964-.834 1.853.37 1.112 3.427 2.501 3.52.834.093-1.668-.463-2.316-1.204-1.575M80.98 27.664c-.617.556-1.668 1.797-.926 2.316.927.648 4.169 2.316 3.89 0-.221-1.853-1.08-1.698-1.481-1.39l-.834.741"/></g></g></g></g></svg>