<svg xmlns:dc="http://purl.org/dc/elements/1.1/" xmlns:cc="http://creativecommons.org/ns#" xmlns:rdf="http://www.w3.org/1999/02/22-rdf-syntax-ns#" xmlns:svg="http://www.w3.org/2000/svg" xmlns="http://www.w3.org/2000/svg" viewBox="0 0 256 256" fill="none"><metadata><rdf:RDF><cc:Work><dc:format>image/svg+xml</dc:format><dc:type rdf:resource="http://purl.org/dc/dcmitype/StillImage"/><dc:title>Croodles - Doodle your face</dc:title><dc:creator><cc:Agent><dc:title>vijay verma</dc:title></cc:Agent></dc:creator><dc:source>https://www.figma.com/community/file/966199982810283152</dc:source><cc:license rdf:resource="https://creativecommons.org/licenses/by/4.0/"/></cc:Work><cc:License rdf:about="https://creativecommons.org/licenses/by/4.0/"><cc:permits rdf:resource="https://creativecommons.org/ns#Reproduction"/><cc:permits rdf:resource="https://creativecommons.org/ns#Distribution"/><cc:permits rdf:resource="https://creativecommons.org/ns#DerivativeWorks"/><cc:requires rdf:resource="https://creativecommons.org/ns#Notice"/><cc:requires rdf:resource="https://creativecommons.org/ns#Attribution"/></cc:License></rdf:RDF></metadata><mask id="avatarsRadiusMask"><rect width="256" height="256" rx="0" ry="0" x="0" y="0" fill="#fff"/></mask><g mask="url(#avatarsRadiusMask)"><g><path d="M75.03 97.424c1.202-6.455 3.064-12.418 5.682-17.62.016-.216.083-.433.202-.633 2.919-4.87 8.873-9.312 16.326-12.833 7.498-3.543 16.698-6.244 26.347-7.523 18.974-2.514 40.12.43 53.394 13.87.297.097.565.287.754.562 3.569 5.173 5.282 11.963 5.444 21.928.009.587.013 1.185.012 1.794.901-.063 1.887-.025 2.873.273 1.537.466 2.906 1.511 3.976 3.357.616 1.064.876 2.389.942 3.719.067 1.353-.06 2.837-.319 4.311-.514 2.931-1.582 6.01-2.891 8.176-2.249 3.72-4.68 4.686-6.255 4.987a1.391 1.391 0 0 1-.256.027 582.535 582.535 0 0 1-2.092 14.918c-4.165 27.407-11.025 49.419-19.175 64.937-4.075 7.759-8.495 13.939-13.103 18.358-4.604 4.416-9.464 7.137-14.402 7.82-8.816 1.218-24.813-4.583-41.248-35.537-8.265-15.568-14.506-36.508-16.885-57.109a159.222 159.222 0 0 1-.961-12.6c-1.61-.094-3.18-1.052-4.416-2.348-1.505-1.578-2.748-3.877-3.327-6.674-1.39-6.708-.455-11.284 1.825-13.943 2.083-2.43 5.066-2.99 7.553-2.217Z" fill="rgba(255, 255, 255, 0)"/><g stroke="#000" stroke-width="3" stroke-linecap="round" stroke-linejoin="round"><path d="M182.838 98.138c2.311-.365 4.88-.368 6.725 2.839 1.844 3.208.141 11.054-2.296 15.117-2.066 3.442-4.171 4.187-5.369 4.418M73.939 98.658c-4.24-1.94-11.052 1.233-8.305 14.599 1.078 5.246 4.587 8.399 7.08 8.042"/><path d="M80.916 79.414c-14.601 29.019-5.999 82.679 10.64 114.264 16.64 31.585 32.458 36.809 40.48 35.692 18.473-2.572 37.818-36.215 46.272-92.269 5.666-37.57 5.584-54.17-1.216-64.101"/></g><g transform="translate(117 128)"><path d="M15.276 18c-3.978.854-7.159 6.761-3.977 9.944 3.977 3.977 12.33 4.773 13.125 0 .637-3.819-1.281-5.857-2.74-6.652" stroke="#000" stroke-width="3" stroke-linecap="round" stroke-linejoin="round"/></g><g transform="translate(62 148)"/><g transform="translate(97 191)"><path d="M17 12s13.39 3.898 36.157 0" stroke="#000" stroke-width="3" stroke-linecap="round" stroke-linejoin="round"/></g><g transform="translate(0 -31)"><g stroke="rgba(15, 169, 88, 1)" stroke-width="3" stroke-linecap="round" stroke-linejoin="round"><path d="M86.286 106.706c-5.554-4.541-4.759-3.753-9.946-5.319M89.457 94.394c-2.76-1.17-4.706-3.372-6.652-5.573M189.966 108.505s-6.127-.337-11.947 1.937M181.411 93.641s-5.314 3.069-8.943 8.155M171.043 82.58s-4.484 4.187-6.873 9.96M158.133 75.526s-3.537 5.014-4.699 11.153M142.828 73.175s-2.656 5.532-2.782 11.779M124.439 72s-1.349 5.986-.073 12.102M107.491 73.854s2.43 5.635 7.059 9.83M95 80.228s3.06 4.275 7.373 8.945"/></g></g><g transform="translate(70 157)"/><g transform="translate(72 80)"><g stroke-width="3" stroke-linecap="round" stroke-linejoin="round"><path d="M35.524 47.974c-.725-.535-5.135-2.321-7.438-6.16-2.303-3.837-2.456-7.675 0-9.364 1.65-1.134 5.147.682 7.438 2.233M36.423 34.017c1.491-1.646 4.12-3.032 6.709-1.567 1.737.983 1.535 7.062 0 9.365-1.233 1.849-5.195 4.94-6.709 5.928M77.688 33.251c-2.2-2.098-7.123-5.373-9.211-1.688-2.61 4.605 5.577 12.974 10.188 14.886M79.776 47.006c2.251-1.689 6.97-5.373 7.83-6.602 1.074-1.535 2.763-7.983 0-10.593-2.764-2.61-8.598 1.075-8.598 5.22" stroke="#F24E1E"/><path d="M26 18.272c.637-1.42 2.937-4.14 7.05-3.671 5.139.587 6.167 1.469 7.342 3.671M72.157 16.213c.588-1.664 3.055-4.817 8.224-4.112 5.17.705 7.05 3.623 7.343 4.993" stroke="#000"/></g></g></g></g></svg>