<svg xmlns:dc="http://purl.org/dc/elements/1.1/" xmlns:cc="http://creativecommons.org/ns#" xmlns:rdf="http://www.w3.org/1999/02/22-rdf-syntax-ns#" xmlns:svg="http://www.w3.org/2000/svg" xmlns="http://www.w3.org/2000/svg" viewBox="0 0 256 256" fill="none"><metadata><rdf:RDF><cc:Work><dc:format>image/svg+xml</dc:format><dc:type rdf:resource="http://purl.org/dc/dcmitype/StillImage"/><dc:title>Croodles - Doodle your face</dc:title><dc:creator><cc:Agent><dc:title>vijay verma</dc:title></cc:Agent></dc:creator><dc:source>https://www.figma.com/community/file/966199982810283152</dc:source><cc:license rdf:resource="https://creativecommons.org/licenses/by/4.0/"/></cc:Work><cc:License rdf:about="https://creativecommons.org/licenses/by/4.0/"><cc:permits rdf:resource="https://creativecommons.org/ns#Reproduction"/><cc:permits rdf:resource="https://creativecommons.org/ns#Distribution"/><cc:permits rdf:resource="https://creativecommons.org/ns#DerivativeWorks"/><cc:requires rdf:resource="https://creativecommons.org/ns#Notice"/><cc:requires rdf:resource="https://creativecommons.org/ns#Attribution"/></cc:License></rdf:RDF></metadata><mask id="avatarsRadiusMask"><rect width="256" height="256" rx="0" ry="0" x="0" y="0" fill="#fff"/></mask><g mask="url(#avatarsRadiusMask)"><g><g stroke="#000" stroke-width="3" stroke-linecap="round" stroke-linejoin="round"><path d="M78.652 114.924c-6.088 8.802-10.764 34.418-.56 51 11.585 22.533 35.353 28.955 59.629 26.679 24.276-2.276 41.56-22.215 45.705-38.052 4.145-15.838 0-35.343-8.382-45.551"/><path d="M181.22 118.377c2.589-1.154 5.557-1.698 7.401 1.509 1.845 3.207 3.179 7.326 1.653 13.653-.941 3.903-3.279 4.815-5.246 4.815M72.996 124.629c-4.24-1.941-9.13 2.25-7.761 13.366.961 7.806 3.973 9.554 6.467 9.198"/></g><g transform="translate(113 126)"><path d="M13 43.803c3.666 0 8.537-1.535 9.228-5.918.602-3.812-5.617-3.21-7.322-7.523s-.893-17.67 0-23.362" stroke="#000" stroke-width="3" stroke-linecap="round" stroke-linejoin="round"/></g><g transform="translate(62 112)"/><g transform="translate(98 169)"><path d="M34.032 8.914C26.782 8.914 20.018 7.822 17 7c1.088 2.587 3.382 11.973 17.032 11.973S50.497 9.776 52.258 7c-5.897 1.823-10.976 1.914-18.226 1.914Z" stroke="#000" stroke-width="3" stroke-linecap="round" stroke-linejoin="round"/></g><g transform="translate(-2 4)"><g stroke="rgba(0, 0, 0, 1)" stroke-width="3" stroke-linecap="round" stroke-linejoin="round"><path d="M188.358 132.503c-4.223-3.592-11.778-5.788-15.063-1.65-5.54 6.978-4.086 13.586 1.116 14.671 5.203 1.085 12.056-1.4 12.875-5.296.655-3.117-.471-5.684-1.831-6.962M174.076 88.008c-4.498 4.772-7.546 13.563-2.857 17.693 7.909 6.965 15.802 5.646 17.398-.434 1.595-6.08-.927-14.325-5.48-15.527-3.642-.962-6.742.213-8.334 1.743"/><path d="M170.934 83.816c-4.577-1.775-11.534-1.411-13.077 3.006-2.601 7.448.538 12.551 5.205 11.944 4.667-.608 9.674-4.681 9.225-8.178-.36-2.797-2.049-4.616-3.559-5.288M93.503 78.505c1.146-4.47.023-11.007-4.283-12.093-7.263-1.832-11.684 1.56-10.59 5.914 1.093 4.355 5.467 8.74 8.689 8.023 2.576-.573 4.088-2.32 4.548-3.802M160.221 60.766c-2.825 3.04-4.963 9.504-2.027 12.212 4.953 4.567 10.489 5.189 12.74-1.778 1.242-3.843-2.179-8.419-5.032-9.236-2.283-.653-4.229.078-5.228 1.052M74.753 185.307c-3.002 5.196-2.612 7.597 1.816 7.935 7.468.569 9.99-4.677 8.172-8.782-1.818-4.105-7.567-5.367-10.62-4.113M175.404 171.821c-.393 5.078 4.643 8.094 7.098 4.484 4.142-6.088 1.015-12.102-2.627-13.997-3.643-1.894-7.378 2.092-8.083 5.846M121 86.398c-2.695-3.746-8.43-7.077-12.025-4.47-6.064 4.397-6.297 9.965-2.255 11.919 4.042 1.954 10.213 1.41 11.728-1.521 1.213-2.345.842-4.625 0-5.928M63.593 83.189c5.488-4.151 11.647-2.135 15.76 3.829 1.286 2.074.552 8.991-1.3 12.725-2.313 4.666-11.731 5.532-17.901 2.421-6.17-3.112-5.813-11.975 3.441-18.975ZM133.702 80.014c2.539-2.163 7.551-.75 8.885 3.136.852 2.482.255 4.686-.602 6.631-1.07 2.432-5.428 2.883-8.283 1.262-2.854-1.621-4.281-7.38 0-11.029Z"/><path d="M146.301 79.327c-2.635-3.672 3.254-4.645 8.787-5.867 3.535-.782 6.488.32 9.052 1.73 3.206 1.763 1.781 4.579-.839 8.137-2.62 3.559-12.555 2.193-17-4ZM61.702 110.014c2.54-2.163 7.55-.749 8.885 3.136.852 2.482.254 4.686-.602 6.631-1.07 2.432-5.428 2.883-8.283 1.262-2.854-1.621-4.282-7.381 0-11.029ZM142.054 87.014c3.808-2.163 11.325-.75 13.326 3.136 1.278 2.482.382 4.686-.902 6.631-1.606 2.432-8.142 2.883-12.424 1.262s-6.423-7.38 0-11.029Z"/><path d="M137.264 59.416c5.712-2.828 14.43-4.427 17.5 2.5 1.527 3.447-.074 6.956-2 9.5-2.409 3.18-9.497 5.37-15.92 3.249-6.423-2.12-9.215-10.478.42-15.249Z"/><path d="M123.397 65.09c4.922-2.447 12.433-3.828 15.078 2.16 1.317 2.981-.063 6.014-1.723 8.214-2.075 2.75-8.182 4.642-13.717 2.81-5.534-1.834-7.939-9.06.362-13.185ZM145.264 71.416c5.712-2.828 14.43-4.427 17.5 2.5 1.527 3.447-.074 6.956-2 9.5-2.409 3.18-9.497 5.37-15.92 3.249-6.423-2.12-9.215-10.478.42-15.249ZM71.264 162.416c5.712-2.828 14.43-4.427 17.5 2.5 1.527 3.447-.073 6.956-2 9.5-2.409 3.181-9.497 5.369-15.92 3.249-6.423-2.12-9.215-10.478.42-15.249Z"/><path d="M65.216 155.916c2.726-4.33 7.984-9.356 12.858-6.771 2.426 1.287 2.758 4.08 2.48 6.465-.346 2.982-4.262 7.586-9.466 9.371-5.205 1.785-10.47-1.763-5.872-9.065ZM171.002 152.608c2.092-3.322 6.125-7.179 9.865-5.195 1.862.988 2.117 3.13 1.904 4.96-.267 2.288-3.271 5.82-7.264 7.19-3.993 1.37-8.032-1.353-4.505-6.955ZM58.216 177.916c2.726-4.33 7.984-9.356 12.858-6.771 2.426 1.287 2.758 4.08 2.48 6.465-.346 2.982-4.262 7.586-9.466 9.371-5.205 1.785-10.47-1.763-5.872-9.065ZM186.216 115.916c2.726-4.33 7.984-9.356 12.858-6.771 2.426 1.287 2.758 4.08 2.481 6.465-.347 2.982-4.263 7.586-9.467 9.371-5.205 1.785-10.469-1.763-5.872-9.065Z"/><path d="M175.812 115.105c2.726-4.33 5.2-5.941 10.074-3.355 2.426 1.287 2.758 4.08 2.481 6.465-.347 2.981.65 6.604-4.555 8.39-5.205 1.785-12.597-4.198-8-11.5ZM120.216 86.916c2.726-4.33 7.984-9.356 12.858-6.77 2.426 1.286 2.758 4.079 2.481 6.464-.347 2.982-4.263 7.585-9.467 9.37-5.205 1.786-10.469-1.762-5.872-9.064ZM189 123c2.726-4.33 8.625-6.586 13.5-4 2.426 1.287 5.5 3.915 4 8-1.035 2.817-4.5 6-10.5 5.5-5.483-.457-11.598-2.198-7-9.5ZM109.77 63.007c4.916-2.452 11.126-.37 13.768 5.635 1.314 2.988 4.669 7.33 3.011 9.536-2.072 2.757-10.095 3.715-15.622 1.877-5.527-1.838-9.447-12.912-1.157-17.048Z"/><path d="M90.871 77.39c-.59-5.462 3.08-13 9.629-13.39 3.259-.194 8.508 2.179 10 4.5 1.865 2.902.402 9.187-3.242 13.73-3.644 4.543-15.39 4.37-16.387-4.84ZM49.245 151.077c-.202-6.509 4.128-15.826 10.885-16.779 3.363-.474 4.232 4.027 5.593 6.702 1.702 3.343 4.081 8.95 0 14.671-4.08 5.721-16.136 6.383-16.478-4.594Z"/><path d="M53.245 166.289C53.042 159.78 55.322 156.785 61 153c3-2 8.139.325 9.5 3 1.701 3.343 3.304 9.162-.777 14.883-4.08 5.721-16.136 6.383-16.478-4.594ZM53.47 138.633c-.154-4.944 1.577-7.218 5.89-10.093 2.278-1.519 6.181.247 7.215 2.278 1.292 2.539 2.51 6.959-.59 11.304-3.1 4.345-12.255 4.847-12.515-3.489ZM67.868 87.093C67.278 81.632 73.451 76.39 80 76c3.259-.194 5.442.362 7.497 2.204C89.5 80 89.644 83.957 86 88.5c-3.644 4.543-17.135 7.804-18.132-1.407ZM70.69 117.026c-.512-4.725 4.83-9.26 10.495-9.597 2.82-.168 4.709.313 6.486 1.907 1.733 1.554 1.858 4.977-1.295 8.907-3.153 3.931-14.825 6.752-15.687-1.217Z"/><path d="M79.69 104.026c-.512-4.724 4.83-9.26 10.495-9.597 2.82-.168 4.709.313 6.486 1.907 1.733 1.554 1.858 4.977-1.295 8.907-3.153 3.931-14.825 6.752-15.687-1.217ZM66.2 148.08c-.716-6.608 6.754-12.951 14.678-13.423 3.943-.235 6.585.438 9.071 2.667 2.424 2.173 2.598 6.96-1.811 12.458-4.41 5.497-20.733 9.442-21.939-1.702Z"/><path d="M87.69 90.026c-.512-4.724 4.83-9.26 10.495-9.597 2.82-.168 4.709.313 6.486 1.907 1.733 1.554 1.858 4.977-1.295 8.907-3.153 3.931-14.825 6.752-15.687-1.217Z"/><path d="M66.522 105.164c-2.35-5.955 2.971-13.75 10.21-16.208 3.602-1.223 6.228-1.273 9.104.164 2.805 1.4 4.188 5.802 1.494 12.031-2.694 6.23-16.847 14.055-20.808 4.013ZM175.223 90.399c-2.349-5.955 1.538-17.441 8.777-19.899 3.602-1.223 7.661 2.418 10.538 3.855 2.804 1.4 4.187 5.802 1.493 12.031-2.693 6.23-16.847 14.055-20.808 4.013ZM190.911 172.04c5.391-2.599 13.617-4.067 16.514 2.296 1.442 3.167-.069 6.39-1.887 8.727-2.273 2.922-8.962 4.933-15.023 2.985s-8.696-9.626.396-14.008Z"/><path d="M187.911 155.04c5.391-2.599 13.617-4.067 16.514 2.296 1.442 3.167-.069 6.39-1.887 8.727-2.273 2.922-8.962 4.933-15.023 2.985s-8.696-9.626.396-14.008Z"/><path d="M189.275 144.82c5.157-1.987 12.954-3.366 15.725 1.5 1.379 2.422.384 6.84-1.355 8.627-2.174 2.235-9.847 4.863-15.645 3.373-5.798-1.489-7.421-10.149 1.275-13.5Z"/><path d="M189.311 133.82c5.156-1.987 12.954-3.366 15.724 1.5 1.379 2.422 3.441 3.893 1.702 5.68-2.174 2.234-11.202 3.989-17 2.5-5.798-1.489-9.123-6.328-.426-9.68ZM56.287 105c4.344-3.248 11.945-1.957 15.201 2.709 1.018 1.624.437 7.037-1.029 9.959-1.832 3.652-9.288 4.33-14.172 1.895-4.885-2.435-7.327-9.084 0-14.563ZM169.624 73.8c4.345-3.248 11.945-1.957 15.202 2.71 1.017 1.623.436 7.037-1.029 9.959-1.832 3.652-9.288 4.33-14.173 1.895-4.884-2.435-7.327-9.085 0-14.563Z"/><path d="M67.257 123.901c.233-5.419 6.042-10.489 11.716-10.058 4.466.841 5.725 4.114 7.061 7.098 1.67 3.729-2.523 9.932-7.5 12.174-4.975 2.242-11.67-.074-11.277-9.214ZM54.695 119.093c4.116-3.97 6.72-2.297 9.805 3.407.964 1.984 1.388 9.429 0 13-1.735 4.464-8.373 11.976-13 9-4.627-2.976-3.746-18.711 3.195-25.407ZM183.168 87.12c.937-5.642 7.221-4.507 9.903-3.112 2.681 1.395 6.736 6.741 7.751 10.436 1.269 4.618-1.451 13.862-6.822 15.056-9 2-12.412-12.867-10.832-22.38Z"/></g></g><g transform="translate(69 153)"/><g transform="translate(72 106)"><g stroke="#000" stroke-width="3" stroke-linecap="round" stroke-linejoin="round"><path d="M42.82 24.089C36.434 24.293 25 27.127 25 35.427c0 12.334 9.708 14.617 13.247 14.617 2.89 0 9.136-1.598 11.42-4.11 2.284-2.513 3.198-12.563 1.599-15.76-1.082-2.165-3.135-4.885-6.985-4.885"/><path d="M30.687 32.308c-.39.078-1.21.178-.937.858.273.68 1.327.53 1.58 0 .254-.529-.253-1.717-.253-1.717M78.592 41.91c.273.681.499.53.752 0"/><path d="M80.277 30.439c-2.977.763-8.61 3.8-7.328 9.846 1.282 6.046 5.799 7.743 10.305 6.375 4.506-1.368 7.144-7.52 6.411-10.268-.916-3.435-5.712-5.954-9.388-5.031M28.697 16.703c2.14 1.59 7.996 4.292 14.306 2.385C49.313 17.18 54.19 11.568 55.842 9M78.86 14.52c-.922.992.21 4.663 2.421 5.513 2.21.85 3.636 1.501 5.868 1.501"/></g></g></g></g></svg>