<svg xmlns:dc="http://purl.org/dc/elements/1.1/" xmlns:cc="http://creativecommons.org/ns#" xmlns:rdf="http://www.w3.org/1999/02/22-rdf-syntax-ns#" xmlns:svg="http://www.w3.org/2000/svg" xmlns="http://www.w3.org/2000/svg" viewBox="0 0 256 256" fill="none"><metadata><rdf:RDF><cc:Work><dc:format>image/svg+xml</dc:format><dc:type rdf:resource="http://purl.org/dc/dcmitype/StillImage"/><dc:title>Croodles - Doodle your face</dc:title><dc:creator><cc:Agent><dc:title>vijay verma</dc:title></cc:Agent></dc:creator><dc:source>https://www.figma.com/community/file/966199982810283152</dc:source><cc:license rdf:resource="https://creativecommons.org/licenses/by/4.0/"/></cc:Work><cc:License rdf:about="https://creativecommons.org/licenses/by/4.0/"><cc:permits rdf:resource="https://creativecommons.org/ns#Reproduction"/><cc:permits rdf:resource="https://creativecommons.org/ns#Distribution"/><cc:permits rdf:resource="https://creativecommons.org/ns#DerivativeWorks"/><cc:requires rdf:resource="https://creativecommons.org/ns#Notice"/><cc:requires rdf:resource="https://creativecommons.org/ns#Attribution"/></cc:License></rdf:RDF></metadata><mask id="avatarsRadiusMask"><rect width="256" height="256" rx="0" ry="0" x="0" y="0" fill="#fff"/></mask><g mask="url(#avatarsRadiusMask)"><g><g stroke="#000" stroke-width="3" stroke-linecap="round" stroke-linejoin="round"><path d="M174.753 105c11.376 21.844 19.288 64.991 13.488 72.291C174.969 194 108.979 199 85.851 184.156c-15.452-9.917-16.433-61.162-8.216-74.892M183.014 121.686c2.899-1.035 8.509-3.798 9.812 1.811 1.303 5.609 1.283 9.099 0 14.907-.699 3.164-2.337 4.11-4.304 4.11"/><path d="M72.163 124.338c-7.606-2.389-12.086 1.888-9.36 11.337 2.583 8.95 7.051 10.834 9.36 10.328"/></g><g transform="translate(112 122)"><path d="M20.822 8c2.658 8.077 7.542 25.256 5.818 29.354-2.155 5.122-5.487-2.206-5.487 3.507-1.042 2.806-3.778 3.19-5.071-1.537-1.293-4.728-5.216 3.508-6.51 1.537-3.531-1.537-.665-7.067 1.275-8.84" stroke="#000" stroke-width="3" stroke-linecap="round" stroke-linejoin="round"/></g><g transform="translate(63 112)"/><g transform="translate(98 168)"><path d="M54.7 2.055c-7.309 0-25.936-.671-38.7 2.673 0 10.66 12.607 20.135 23.232 17.264C49.857 19.12 56.18 7.072 54.7 2.055Z" stroke="#000" stroke-width="3" stroke-linecap="round" stroke-linejoin="round"/></g><g transform="translate(-3 -1)"><g stroke="rgba(255, 199, 0, 1)" stroke-width="3" stroke-linecap="round" stroke-linejoin="round"><path d="M74.316 94.294c-2.338-26.414-1.002-75.304 18.633-67.45 24.545 9.817 30.856 24.544 45.583 20.336 14.726-4.207 32.959-28.05 39.27-11.921s0 49.694-2.558 55.617"/><path d="M59.666 109.511c-2.91-.529-2.865-5.776-2.48-8.334 14.942-14.072 93.605-12.208 131.07-9.516 3.746 1.873 10.974 6.81 9.916 11.569-1.322 5.951-7.603 6.281-18.842 1.653-11.239-4.628-77.016 3.296-99.495 1.974-22.478-1.323-16.534 3.315-20.17 2.654Z"/></g></g><g transform="translate(68 149)"><g stroke="#000" stroke-width="3" stroke-linecap="round" stroke-linejoin="round"><path d="M61.062 24.899C46.35 27.001 15.03 32.955 3 36.448M126.818 22.425c-14.713 2.102-46.493.893-58.511 1.649"/><path d="M60.3 25.264C45.585 27.366 22.36 36.946 8.826 38.45M123.452 26.203c-14.712 2.101-40.518-1.58-53.84-1.58M61.062 24.208C46.35 26.31 15.767 29.89 3.507 31.74M127.985 17c-14.713 2.102-47.486 4.399-59.747 6.25"/></g></g><g transform="translate(71 103)"><g stroke="#000" stroke-width="3" stroke-linecap="round" stroke-linejoin="round"><path d="M42.82 24.089C36.434 24.293 25 27.127 25 35.427c0 12.334 9.708 14.617 13.247 14.617 2.89 0 9.136-1.598 11.42-4.11 2.284-2.513 3.198-12.563 1.599-15.76-1.082-2.165-3.135-4.885-6.985-4.885"/><path d="M30.687 32.308c-.39.078-1.21.178-.937.858.273.68 1.327.53 1.58 0 .254-.529-.253-1.717-.253-1.717M78.592 41.91c.273.681.499.53.752 0"/><path d="M80.277 30.439c-2.977.763-8.61 3.8-7.328 9.846 1.282 6.046 5.799 7.743 10.305 6.375 4.506-1.368 7.144-7.52 6.411-10.268-.916-3.435-5.712-5.954-9.388-5.031M28.697 16.703c2.14 1.59 7.996 4.292 14.306 2.385C49.313 17.18 54.19 11.568 55.842 9M78.86 14.52c-.922.992.21 4.663 2.421 5.513 2.21.85 3.636 1.501 5.868 1.501"/></g></g></g></g></svg>