<svg xmlns:dc="http://purl.org/dc/elements/1.1/" xmlns:cc="http://creativecommons.org/ns#" xmlns:rdf="http://www.w3.org/1999/02/22-rdf-syntax-ns#" xmlns:svg="http://www.w3.org/2000/svg" xmlns="http://www.w3.org/2000/svg" viewBox="0 0 256 256" fill="none"><metadata><rdf:RDF><cc:Work><dc:format>image/svg+xml</dc:format><dc:type rdf:resource="http://purl.org/dc/dcmitype/StillImage"/><dc:title>Croodles - Doodle your face</dc:title><dc:creator><cc:Agent><dc:title>vijay verma</dc:title></cc:Agent></dc:creator><dc:source>https://www.figma.com/community/file/966199982810283152</dc:source><cc:license rdf:resource="https://creativecommons.org/licenses/by/4.0/"/></cc:Work><cc:License rdf:about="https://creativecommons.org/licenses/by/4.0/"><cc:permits rdf:resource="https://creativecommons.org/ns#Reproduction"/><cc:permits rdf:resource="https://creativecommons.org/ns#Distribution"/><cc:permits rdf:resource="https://creativecommons.org/ns#DerivativeWorks"/><cc:requires rdf:resource="https://creativecommons.org/ns#Notice"/><cc:requires rdf:resource="https://creativecommons.org/ns#Attribution"/></cc:License></rdf:RDF></metadata><mask id="avatarsRadiusMask"><rect width="256" height="256" rx="0" ry="0" x="0" y="0" fill="#fff"/></mask><g mask="url(#avatarsRadiusMask)"><g><g stroke="#000" stroke-width="3" stroke-linecap="round" stroke-linejoin="round"><path d="M174.753 105c11.376 21.844 19.288 64.991 13.488 72.291C174.969 194 108.979 199 85.851 184.156c-15.452-9.917-16.433-61.162-8.216-74.892M183.014 121.686c2.899-1.035 8.509-3.798 9.812 1.811 1.303 5.609 1.283 9.099 0 14.907-.699 3.164-2.337 4.11-4.304 4.11"/><path d="M72.163 124.338c-7.606-2.389-12.086 1.888-9.36 11.337 2.583 8.95 7.051 10.834 9.36 10.328"/></g><g transform="translate(112 122)"><path d="M2 2.745c3.502 0 7.716 5.688 8.111 14.749.643 14.704-4.162 19.358 0 26.97 2.728 4.989 17.76 4.733 21.85-3.534 3.218-6.502-2.929-12.045-6.593-20.744C21.873 11.894 19.66 6.796 23.314 2" stroke="#000" stroke-width="3" stroke-linecap="round" stroke-linejoin="round"/></g><g transform="translate(63 112)"/><g transform="translate(98 168)"><path d="M54.7 2.055c-7.309 0-25.936-.671-38.7 2.673 0 10.66 12.607 20.135 23.232 17.264C49.857 19.12 56.18 7.072 54.7 2.055Z" stroke="#000" stroke-width="3" stroke-linecap="round" stroke-linejoin="round"/></g><g transform="translate(-3 -1)"><g stroke="rgba(242, 78, 30, 1)" stroke-width="3" stroke-linecap="round" stroke-linejoin="round"><path d="M114.5 70c2 .5 6.5 2 8 6.5M122.5 84c-3-5-12.5-13.9-25.5-10-10 3-17.5 6.5-22.5 6.5M144.459 69.07c-5.267-.422-16.431.884-18.959 9.479"/><path d="M121.5 88C116 81 104 76.972 88 82c-8.632 2.713-20.736 13.52-22 23"/><path d="M119.5 90.5c-11-8-28.922-2.545-36 1.5-8.847 5.056-15 12.5-20 20.5"/><path d="M59 120c15.5-7 14.83-14.075 26.565-21.542C102 88 116 90 122 93.5M126.5 84.5c5-8 15.562-12.837 26.685-11.32C164.307 74.696 180 82.5 191 80.5"/><path d="M125.378 88.347c4.424-4.846 15.704-14.864 32.122-9.847 18 5.5 24 16 31.5 15"/><path d="M126.5 90.5c4.213-3.792 19.941-13.475 36.5-2 21.336 14.786 29.5 8.5 35 4"/><path d="M125 95.5c4.5-3.5 17.5-8 28-2 19.086 10.906 27 14.5 40 9.5M119.5 97.5c-14.5-1.5-30.5 3-38 15.035"/></g></g><g transform="translate(68 149)"/><g transform="translate(71 103)"><g stroke-width="3" stroke-linecap="round" stroke-linejoin="round"><path d="M21 41.866c.58-.937 2.196-2.892 4.016-3.213M25.765 45.213l2.811-4.954M32.46 41.81c0 1.129-1.157 5.37-1.157 5.37" stroke="#F24E1E"/><path d="M21.278 32.108c1.198 2.745 4.94 8.42 10.322 9.163 5.382.742 9.202-1.083 10.439-2.088" stroke="#000"/><path d="M80.815 40.26v3.882M84.416 39.42l1.52 3.627M87.777 38.385c.714.67 2.58 1.93 2.58 3.108" stroke="#F24E1E"/><path d="M72.784 35.038c1.205 1.428 4.204 4.284 6.56 4.284 2.945 0 8.166-.803 11.914-4.284M21.15 21.92c.982-1.563 4.551-4.794 10.977-5.222 6.426-.428 9.103 1.16 9.639 2.008M73.738 20.699c1.48-2.08 5.856-6.22 11.511-6.151 2.214.31 7.066 2.059 8.765 6.574" stroke="#000"/></g></g></g></g></svg>