<svg xmlns:dc="http://purl.org/dc/elements/1.1/" xmlns:cc="http://creativecommons.org/ns#" xmlns:rdf="http://www.w3.org/1999/02/22-rdf-syntax-ns#" xmlns:svg="http://www.w3.org/2000/svg" xmlns="http://www.w3.org/2000/svg" viewBox="0 0 256 256" fill="none"><metadata><rdf:RDF><cc:Work><dc:format>image/svg+xml</dc:format><dc:type rdf:resource="http://purl.org/dc/dcmitype/StillImage"/><dc:title>Croodles - Doodle your face</dc:title><dc:creator><cc:Agent><dc:title>vijay verma</dc:title></cc:Agent></dc:creator><dc:source>https://www.figma.com/community/file/966199982810283152</dc:source><cc:license rdf:resource="https://creativecommons.org/licenses/by/4.0/"/></cc:Work><cc:License rdf:about="https://creativecommons.org/licenses/by/4.0/"><cc:permits rdf:resource="https://creativecommons.org/ns#Reproduction"/><cc:permits rdf:resource="https://creativecommons.org/ns#Distribution"/><cc:permits rdf:resource="https://creativecommons.org/ns#DerivativeWorks"/><cc:requires rdf:resource="https://creativecommons.org/ns#Notice"/><cc:requires rdf:resource="https://creativecommons.org/ns#Attribution"/></cc:License></rdf:RDF></metadata><mask id="avatarsRadiusMask"><rect width="256" height="256" rx="0" ry="0" x="0" y="0" fill="#fff"/></mask><g mask="url(#avatarsRadiusMask)"><g><g stroke="#000" stroke-width="3" stroke-linecap="round" stroke-linejoin="round"><path d="M174.753 105c11.376 21.844 19.288 64.991 13.488 72.291C174.969 194 108.979 199 85.851 184.156c-15.452-9.917-16.433-61.162-8.216-74.892M183.014 121.686c2.899-1.035 8.509-3.798 9.812 1.811 1.303 5.609 1.283 9.099 0 14.907-.699 3.164-2.337 4.11-4.304 4.11"/><path d="M72.163 124.338c-7.606-2.389-12.086 1.888-9.36 11.337 2.583 8.95 7.051 10.834 9.36 10.328"/></g><g transform="translate(112 122)"><path d="M24.26 5c-.79 5.338-1.113 16.334.387 22.334 3.517 14.067-1.546 17.47-3.286 17.47-5.263 0-6.502-4.699-7.71-17.991-1.5-16.5-1.542-16.351-3.651-20.974" stroke="#000" stroke-width="3" stroke-linecap="round" stroke-linejoin="round"/></g><g transform="translate(63 112)"/><g transform="translate(98 168)"><g stroke="#000" stroke-width="3" stroke-linecap="round" stroke-linejoin="round"><path d="M16 6.624c5.289 2.44 13.494 7.955 22.652 7.677C49.779 13.964 53.259 8.17 54.775 5"/><path d="M34.268 6.309c-3.02-1.866-8.596 1.799-9.879 4.203 1.516 5.512 7.297 9.171 13.905 9.171 7.27 0 11.264-6.268 11.933-8.482l-.017-.034c-.624-1.177-1.73-3.266-4.668-4.858-3.708-2.009-6.175 6.067-6.865 6.067-.689 0-.579-3.7-4.41-6.067Z"/></g></g><g transform="translate(-3 -1)"><path d="M180.236 149.808c3.422-.247 5.261-15.418 0-14.84-5.261.577 1.899 11.464 8.5 1.84 6.601-9.625-8.622-20-11.122-14.5s4.122 16.372 11.122-3.628-19.285-24.403-20.642-14.888c-1.358 9.516 13.587 12.245 11.142-8.484-2.445-20.73-24.6-22.878-29-13.5-4.401 9.377 6.842 10.67 10.998 4.5s-.123-22.883-17.998-25c-17.875-2.118-33 7-30.5 18s16.5 7.865 11.5-6.5c-5-14.366-22.5-13.5-31.5-4.5s-4 30.5 3.497 31c7.498.5 8.503-6.13 1.503-10.5s-20.998-4-23.5 10.5c-2.503 14.5 5.997 25 10.634 15.424 4.636-9.576-15.637-11.924-19.137 4.576s6.503 17.5 9.504 13c3-4.5-2.001-7-4.501-3-5.145 8.232-2 15.5 2.5 18" stroke="rgba(242, 78, 30, 1)" stroke-width="3" stroke-linecap="round" stroke-linejoin="round"/></g><g transform="translate(68 149)"/><g transform="translate(71 103)"><g stroke="#000" stroke-width="3" stroke-linecap="round" stroke-linejoin="round"><path d="M20.84 12.257c1.685-1.252 6.125-2.587 11.267-1.878 4.493.619 6.435 2.244 7.736 4.266M72.868 14.15c2.02-2.903 5.76-3.64 8.115-3.89 2.355-.249 5.035-.25 7.19.328M4 21.169l13.684 6.495M48.232 31.494c5.142-3.297 17.622-3.304 20.454-1.835M96.88 27.34c2.544-1.323 10.581-6.782 13.124-8.613M24.635 49.885c-5.031-3.088-10.578-15.72-5.891-22.67 5.245-7.779 23.806-8.685 28.097 2.34 2.56 6.574 1.531 12.78.894 14.373-1.796 4.488-10.253 13.84-23.1 5.957ZM95.457 26.49c-5.54-7.954-20.979-8.26-25.362.448-1.854 3.686-3.08 14.193 4.383 20.122 3.864 3.07 17.975 8.25 22.817-5.174 2.249-6.237.422-12.151-1.838-15.396Z"/><path d="M34.424 29.788c-.402.247-1.13.964-.834 1.853.37 1.112 3.427 2.501 3.52.834.093-1.668-.463-2.316-1.204-1.575M80.98 27.664c-.617.556-1.668 1.797-.926 2.316.927.648 4.169 2.316 3.89 0-.221-1.853-1.08-1.698-1.481-1.39l-.834.741"/></g></g></g></g></svg>