<svg xmlns:dc="http://purl.org/dc/elements/1.1/" xmlns:cc="http://creativecommons.org/ns#" xmlns:rdf="http://www.w3.org/1999/02/22-rdf-syntax-ns#" xmlns:svg="http://www.w3.org/2000/svg" xmlns="http://www.w3.org/2000/svg" viewBox="0 0 256 256" fill="none"><metadata><rdf:RDF><cc:Work><dc:format>image/svg+xml</dc:format><dc:type rdf:resource="http://purl.org/dc/dcmitype/StillImage"/><dc:title>Croodles - Doodle your face</dc:title><dc:creator><cc:Agent><dc:title>vijay verma</dc:title></cc:Agent></dc:creator><dc:source>https://www.figma.com/community/file/966199982810283152</dc:source><cc:license rdf:resource="https://creativecommons.org/licenses/by/4.0/"/></cc:Work><cc:License rdf:about="https://creativecommons.org/licenses/by/4.0/"><cc:permits rdf:resource="https://creativecommons.org/ns#Reproduction"/><cc:permits rdf:resource="https://creativecommons.org/ns#Distribution"/><cc:permits rdf:resource="https://creativecommons.org/ns#DerivativeWorks"/><cc:requires rdf:resource="https://creativecommons.org/ns#Notice"/><cc:requires rdf:resource="https://creativecommons.org/ns#Attribution"/></cc:License></rdf:RDF></metadata><mask id="avatarsRadiusMask"><rect width="256" height="256" rx="0" ry="0" x="0" y="0" fill="#fff"/></mask><g mask="url(#avatarsRadiusMask)"><g><path d="M73.886 102.022c1.232-5.713 2.807-10.664 4.761-14.337.032-.158.09-.313.177-.46 2.902-4.883 8.823-9.335 16.233-12.866 7.455-3.552 16.603-6.26 26.198-7.542 19.113-2.553 40.443.509 53.606 14.442.314.332.442.773.388 1.193 2.089 3.98 4.248 9.844 6.223 16.882 1.343-.518 3.018-.888 4.666-.779 1.926.127 3.949.932 5.161 3.039 2.083 3.624 2.188 9.14.67 15.44-.537 2.23-1.649 3.724-3.025 4.635a6.809 6.809 0 0 1-2.454.995c1.238 7.833 2.129 16.109 2.48 24.335.561 13.173-.262 26.293-3.314 37.281-3.048 10.971-8.382 20.029-17.011 24.722-18.324 9.965-38.663 12.216-55.895 7.93-17.234-4.286-31.46-15.15-37.277-31.47-3.787-10.625-5.537-30.289-5.1-49.542.064-2.825.176-5.647.335-8.437l-.05.009c-.822.117-1.697.06-2.558-.293-.863-.353-1.62-.967-2.262-1.822-1.25-1.665-2.122-4.327-2.602-8.223-.69-5.608.155-10.034 2.235-12.768 1.057-1.39 2.435-2.337 4.04-2.711 1.41-.327 2.898-.192 4.375.347Z" fill="rgba(255, 255, 255, 0)"/><g stroke="#000" stroke-width="3" stroke-linecap="round" stroke-linejoin="round"><path d="M78.904 87.314c-10.418 19.382-10.78 77.782-3.213 98.999 11.51 32.276 56.411 43.348 93.316 23.288 33.33-18.117 18.061-104.955 6.13-127.601"/><path d="M182.901 100.238c2.589-1.154 6.883-1.752 8.728 1.455 1.844 3.208 2.054 8.382.528 14.71-.941 3.902-3.738 4.766-5.705 4.766M72.656 103.001c-5.88-2.578-10.794 2.577-9.425 13.692.962 7.806 3.407 9.64 5.901 9.284"/></g><g transform="translate(115 126)"><path d="M20.822 8c2.658 8.077 7.542 25.256 5.818 29.354-2.155 5.122-5.487-2.206-5.487 3.507-1.042 2.806-3.778 3.19-5.071-1.537-1.293-4.728-5.216 3.508-6.51 1.537-3.531-1.537-.665-7.067 1.275-8.84" stroke="#000" stroke-width="3" stroke-linecap="round" stroke-linejoin="round"/></g><g transform="translate(61 138)"><g stroke="#000" stroke-width="3" stroke-linecap="round" stroke-linejoin="round"><path d="M63.127 81.204c-.995 6.683-4.538 8.907-4.538 8.907M77.203 83.303c-.411 4.22 1.27 8.963 1.27 8.963M65.385 81.532c.243 4.766-2.113 10.435-2.113 10.435M73.228 81.918c1.123 4.638 2.613 9.616 2.613 9.616M60.547 81.872c-.66 2.159-4.782 5.633-4.782 5.633M58.485 81.968c-.94 2.052-5.485 4.95-5.485 4.95M81.357 81c.89 2.512 5.375 6.431 5.375 6.431M68.158 82.892c1.017 5.35-.89 10.099-1.255 12.035M71.766 93.765s-1.128-6.206-1.473-10.462M78.429 81c1.04 6.693 5.855 10.718 5.855 10.718"/></g></g><g transform="translate(98 188)"><g stroke="#000" stroke-width="3" stroke-linecap="round" stroke-linejoin="round"><path d="M11 11.184c2.913 1.137 9.265 3.07 24.27 1.707C54.029 11.186 54.224 9.558 58.7 7"/><path d="M35.745 7.562c-10.82.637-17.105 3.713-18.895 5.172 15.713 12.331 34.807 0 34.807-2.586-2.387-.994-2.387-3.381-15.912-2.586Z"/></g></g><g transform="translate(-2 -23)"><g stroke="rgba(255, 199, 0, 1)" stroke-width="3" stroke-linecap="round" stroke-linejoin="round"><path d="M129.821 67.09c-13.792 3.183-28.115 1.061-43.498 15.914M133.535 65.499c17.505-11.67 46.151 4.244 49.864 24.401M133.004 72.395c9.018 16.975 23.871 32.566 50.395 25.14"/><path d="M133.004 67.62c10.61 13.262 29.706 21.22 47.742 25.463M73.06 105.492c17.231 3.015 52.518-9.018 55.486-29.725M72 102.309c3.183-36.28 48.803-49.541 58.882-36.28"/><path d="M129.291 70.273c-9.293 8.574-24.402 16.975-47.212 22.28M115.499 84.065c-8.488 9.372-15.914 15.384-38.725 19.097M135.656 67.09c6.189-1.237 25.463 0 38.194 16.975"/></g></g><g transform="translate(71 156)"/><g transform="translate(70 84)"><g stroke="#000" stroke-linecap="round" stroke-linejoin="round"><path d="M33.942 27.705c7.098-2.653 13.238 5.211 13.238 10.872 0 6.83-5.28 12.537-10.293 12.537-5.011 0-9.887-5.707-9.887-12.536 0-5.662 4.02-9.794 7.83-11.262M77.413 23.224c6.564-2.653 11.03 5.332 11.03 10.993 0 6.83-3.868 12.537-8.503 12.537s-9.02-4.682-9.02-12.171c0-7.489 3.594-10.16 7.117-11.627" stroke-width="3"/><path d="M40.12 40.512s0 0 0 0M81.992 38.226s0 0 0 0" stroke-width="6"/><path d="M28.229 19.251c2.78-3.127 10.059-7.817 16.938-1.563M66.192 15.104c4.343-4.169 14.437-10.37 20.065-1.824" stroke-width="3"/></g></g></g></g></svg>